<?xml version="1.0" encoding="UTF-8" standalone="no"?>
<svg
   xmlns:dc="http://purl.org/dc/elements/1.1/"
   xmlns:cc="http://creativecommons.org/ns#"
   xmlns:rdf="http://www.w3.org/1999/02/22-rdf-syntax-ns#"
   xmlns:svg="http://www.w3.org/2000/svg"
   xmlns="http://www.w3.org/2000/svg"
   viewBox="0 0 960 960"
   height="960"
   width="960"
   xml:space="preserve"
   id="svg2"
   version="1.1"><metadata
     id="metadata8"><rdf:RDF><cc:Work
         rdf:about=""><dc:format>image/svg+xml</dc:format><dc:type
           rdf:resource="http://purl.org/dc/dcmitype/StillImage" /></cc:Work></rdf:RDF></metadata><defs
     id="defs6"><clipPath
       id="clipPath20"
       clipPathUnits="userSpaceOnUse"><path
         id="path18"
         d="M 0,720 H 720 V 0 H 0 Z" /></clipPath><clipPath
       id="clipPath28"
       clipPathUnits="userSpaceOnUse"><path
         id="path26"
         d="M 107.602,612.398 H 612.398 V 107.602 H 107.602 Z" /></clipPath></defs><g
     transform="matrix(1.3333333,0,0,-1.3333333,0,960)"
     id="g10"><path
       id="path12"
       style="fill:#cfebea;fill-opacity:1;fill-rule:nonzero;stroke:none"
       d="M 0,0 H 720 V 720 H 0 Z" /><g
       id="g14"><g
         clip-path="url(#clipPath20)"
         id="g16"><g
           id="g22"><g
             id="g24" /><g
             id="g36"><g
               style="opacity:0.5"
               id="g34"
               clip-path="url(#clipPath28)"><g
                 id="g32"
                 transform="translate(612.3984,360)"><path
                   id="path30"
                   style="fill:#ffffff;fill-opacity:1;fill-rule:nonzero;stroke:none"
                   d="m 0,0 c 0,-139.396 -113.003,-252.398 -252.398,-252.398 -139.396,0 -252.399,113.002 -252.399,252.398 0,139.396 113.003,252.398 252.399,252.398 C -113.003,252.398 0,139.396 0,0" /></g></g></g></g><g
           transform="translate(448.5669,436.6006)"
           id="g38"><path
             id="path40"
             style="fill:#ee3638;fill-opacity:1;fill-rule:nonzero;stroke:none"
             d="m 0,0 c 0,-6.075 -4.923,-10.998 -10.996,-10.998 -6.069,0 -10.991,4.923 -10.991,10.998 v 7.013 c 0,6.07 4.922,10.988 10.991,10.988 C -4.923,18.001 0,13.083 0,7.013 Z" /></g><g
           transform="translate(437.5714,454.4955)"
           id="g42"><path
             id="path44"
             style="fill:#292929;fill-opacity:1;fill-rule:nonzero;stroke:none"
             d="m 0,0 c -6.002,0 -10.884,-4.882 -10.884,-10.882 v -7.013 c 0,-6.006 4.882,-10.892 10.884,-10.892 6.004,0 10.889,4.886 10.889,10.892 v 7.013 C 10.889,-4.882 6.004,0 0,0 m 0,-29 c -6.12,0 -11.098,4.982 -11.098,11.105 v 7.013 c 0,6.118 4.978,11.095 11.098,11.095 6.122,0 11.102,-4.977 11.102,-11.095 v -7.013 C 11.102,-24.018 6.122,-29 0,-29" /></g><g
           transform="translate(520.5846,350.8989)"
           id="g46"><path
             id="path48"
             style="fill:#8dd2cf;fill-opacity:1;fill-rule:nonzero;stroke:none"
             d="m 0,0 h -93.856 v 66.68 h 42.172 L 0,18.543 Z m -43.481,85.358 h -73.291 V -18.387 -32.881 -88.406 h 21.212 c 0,27.552 22.334,49.898 49.89,49.898 27.557,0 49.899,-22.346 49.899,-49.898 h 42.1 V -32.881 -18.387 0 Z" /></g><g
           transform="translate(426.8359,351.0059)"
           id="g50"><path
             id="path52"
             style="fill:#8dd2cf;fill-opacity:1;fill-rule:nonzero;stroke:none"
             d="M 0,0 H 93.642 V 18.39 L 42.022,66.467 H 0 Z M 93.856,-0.214 H -0.214 V 66.68 h 42.32 l 51.75,-48.197 z m 4.228,-88.192 h 41.887 V -0.152 L 50.225,85.144 h -73.142 v -173.55 h 21 c 0.057,27.524 22.463,49.898 49.996,49.898 27.537,0 49.947,-22.374 50.005,-49.898 m 42.1,-0.213 H 97.87 v 0.107 c 0,27.454 -22.336,49.79 -49.791,49.79 -27.45,0 -49.783,-22.336 -49.783,-49.79 v -0.107 H -23.13 V 85.357 h 73.44 l 0.03,-0.029 89.844,-85.389 z" /></g><g
           transform="translate(153.0863,495.7568)"
           id="g54"><path
             id="path56"
             style="fill:#8dd2cf;fill-opacity:1;fill-rule:nonzero;stroke:none"
             d="m 0,0 v -233.264 h 45.576 c 0,25.812 20.924,46.736 46.735,46.736 25.809,0 46.733,-20.924 46.733,-46.736 H 246.988 V 0 Z" /></g><g
           transform="translate(292.2369,262.6002)"
           id="g58"><path
             id="path60"
             style="fill:#292929;fill-opacity:1;fill-rule:nonzero;stroke:none"
             d="M 0,0 H 107.73 V 233.05 H -139.044 V 0 h 45.363 c 0.059,25.779 21.049,46.734 46.841,46.734 C -21.048,46.734 -0.06,25.779 0,0 M 107.944,-0.214 H -0.214 v 0.107 c 0,25.711 -20.916,46.628 -46.626,46.628 -25.711,0 -46.628,-20.917 -46.628,-46.628 v -0.107 h -45.789 v 233.478 h 247.201 z" /></g><g
           transform="translate(283.4442,262.4932)"
           id="g62"><path
             id="path64"
             style="fill:#4d4c4e;fill-opacity:1;fill-rule:nonzero;stroke:none"
             d="m 0,0 c 0,-21.175 -17.178,-38.357 -38.359,-38.357 -21.188,0 -38.358,17.182 -38.358,38.357 0,21.184 17.17,38.362 38.358,38.362 C -17.178,38.362 0,21.184 0,0" /></g><g
           transform="translate(264.7296,262.4932)"
           id="g66"><path
             id="path68"
             style="fill:#ffffff;fill-opacity:1;fill-rule:nonzero;stroke:none"
             d="m 0,0 c 0,-10.848 -8.797,-19.648 -19.645,-19.648 -10.85,0 -19.647,8.8 -19.647,19.648 0,10.852 8.797,19.647 19.647,19.647 C -8.797,19.647 0,10.852 0,0" /></g><g
           transform="translate(511.7171,262.4932)"
           id="g70"><path
             id="path72"
             style="fill:#4d4c4e;fill-opacity:1;fill-rule:nonzero;stroke:none"
             d="m 0,0 c 0,-21.175 -17.173,-38.357 -38.357,-38.357 -21.188,0 -38.36,17.182 -38.36,38.357 0,21.184 17.172,38.362 38.36,38.362 C -17.173,38.362 0,21.184 0,0" /></g><g
           transform="translate(493.0017,262.4932)"
           id="g74"><path
             id="path76"
             style="fill:#ffffff;fill-opacity:1;fill-rule:nonzero;stroke:none"
             d="m 0,0 c 0,-10.848 -8.794,-19.648 -19.642,-19.648 -10.853,0 -19.647,8.8 -19.647,19.648 0,10.852 8.794,19.647 19.647,19.647 C -8.794,19.647 0,10.852 0,0" /></g><path
           id="path78"
           style="fill:#548b95;fill-opacity:1;fill-rule:nonzero;stroke:none"
           d="M 400.074,342.339 H 153.086 v -19.903 h 246.988 z" /><path
           id="path80"
           style="fill:#548b95;fill-opacity:1;fill-rule:nonzero;stroke:none"
           d="m 153.193,322.543 h 246.774 v 19.689 H 153.193 Z m 246.988,-0.214 H 152.98 v 20.116 h 247.201 z" /><path
           id="path82"
           style="fill:#548b95;fill-opacity:1;fill-rule:nonzero;stroke:none"
           d="m 403.812,322.436 h 163.101 v 19.903 H 403.812 Z" /><path
           id="path84"
           style="fill:#548b95;fill-opacity:1;fill-rule:nonzero;stroke:none"
           d="m 403.919,322.543 h 162.888 v 19.689 H 403.919 Z M 567.02,322.329 H 403.705 v 20.116 H 567.02 Z" /><g
           transform="translate(286.56,444.9895)"
           id="g86"><path
             id="path88"
             style="fill:#f0f9f8;fill-opacity:1;fill-rule:nonzero;stroke:none"
             d="M 0,0 H -24.011 V 24.008 H -41.475 V 0 h -24.014 v -17.465 h 24.014 v -24.014 h 17.464 v 24.014 H 0 Z" /></g><g
           transform="translate(245.1915,403.6175)"
           id="g90"><path
             id="path92"
             style="fill:#f0f9f8;fill-opacity:1;fill-rule:nonzero;stroke:none"
             d="M 0,0 H 17.251 V 24.013 H 41.262 V 41.265 H 17.251 V 65.273 H 0 V 41.265 H -24.014 V 24.013 H 0 Z M 17.464,-0.213 H -0.213 V 23.8 H -24.227 V 41.479 H -0.213 V 65.487 H 17.464 V 41.479 H 41.475 V 23.8 H 17.464 Z" /></g></g></g></g></svg>